<svg width="38" height="17" viewBox="0 0 38 17" fill="none" xmlns="http://www.w3.org/2000/svg">
<path fill-rule="evenodd" clip-rule="evenodd" d="M36 13.5806C30.2857 9.22581 23.6786 6.56452 17.4286 4.3871L19.75 1C26.1786 3.66129 31.3571 8.01613 36 13.5806C26 11.1613 16.1786 8.5 6.35714 9.46774L8.14286 16L1 5.35484C11 3.90323 23.5 7.77419 36 13.5806Z" fill="#0BAED7"/>
<path d="M36 13.5806C30.2857 9.22581 23.6786 6.56452 17.4286 4.3871L19.75 1C26.1786 3.66129 31.3571 8.01613 36 13.5806ZM36 13.5806C26 11.1613 16.1786 8.5 6.35714 9.46774L8.14286 16L1 5.35484C11 3.90323 23.5 7.77419 36 13.5806Z" stroke="#0BAED7" stroke-width="0.900684"/>
</svg>
