<svg width="151" height="29" viewBox="0 0 151 29" fill="none" xmlns="http://www.w3.org/2000/svg">
<path d="M19.1726 19.3667H17.318V26.3698H19.1726V19.3667Z" fill="#567BAE" stroke="#567BAE" stroke-width="0.900684"/>
<path d="M22.9383 17.8856H21.0837V28.3901H22.9383V17.8856Z" fill="#567BAE" stroke="#567BAE" stroke-width="0.900684"/>
<path d="M30.1559 19.3667H28.3013V26.3698H30.1559V19.3667Z" fill="#567BAE" stroke="#567BAE" stroke-width="0.900684"/>
<path d="M26.3902 17.8856H24.5356V28.3901H26.3902V17.8856Z" fill="#567BAE" stroke="#567BAE" stroke-width="0.900684"/>
<path d="M42.7364 26.7726H41.1674C41.1674 26.7726 40.5398 25.8839 39.2845 24.4027C38.0293 22.6253 37.4017 21.4403 37.0879 20.8479C37.0879 21.7366 37.4017 22.6253 37.4017 23.2178C37.4017 24.4027 37.4017 25.5877 37.4017 26.7726H35.8326C35.8326 25.5877 35.8326 24.4027 35.8326 22.9215C35.8326 21.4403 35.8326 19.9591 35.8326 19.0704H37.7155C37.7155 19.3667 38.3431 20.2554 39.2845 21.7366C40.5398 23.2178 41.1674 24.1065 41.1674 24.6989C41.1674 23.8102 41.1674 23.2178 41.1674 22.329C41.1674 21.4403 41.1674 20.2554 41.1674 19.0704H42.7364C42.7364 19.9591 42.4226 21.4403 42.4226 22.9215C42.4226 24.4027 42.7364 25.5877 42.7364 26.7726Z" fill="#567BAE"/>
<path d="M51.8368 26.7726H49.6402C49.6402 26.7726 49.6402 25.8839 49.0126 24.6989H46.1883C45.8745 25.8839 45.5607 26.4764 45.5607 26.7726H43.6778C43.6778 26.7726 43.9916 25.5877 45.2469 22.9215C46.1883 20.5516 46.5021 19.3667 46.5021 19.0704H49.0126C49.0126 19.3667 49.6402 20.5516 50.2678 22.9215C51.2092 25.2914 51.8368 26.7726 51.8368 26.7726ZM48.6987 23.514C48.0711 21.4403 47.7573 20.2554 47.7573 20.2554H47.4435C47.4435 20.2554 47.1297 21.4403 46.5021 23.514H48.6987Z" fill="#567BAE"/>
<path d="M59.0544 19.0704C59.0544 19.3667 58.4268 20.5516 57.4853 22.9215C56.5439 25.2914 56.2301 26.4764 56.2301 26.7726H54.3473C54.3473 26.4764 54.0335 25.2914 53.092 22.9215C52.1506 20.5516 51.523 19.3667 51.523 19.0704H53.7197C53.7197 19.3667 54.0335 20.2554 54.6611 22.0328C54.9749 24.1065 55.2887 24.9952 55.2887 25.2914H55.6025C55.6025 24.9952 55.9163 24.1065 56.2301 22.329C56.8577 20.5516 57.1715 19.3667 57.1715 19.0704H59.0544Z" fill="#567BAE"/>
<path d="M66.272 19.0704C66.272 19.0704 65.9582 19.6629 65.6444 20.2554C64.703 21.4403 64.3891 22.0328 64.0753 22.329C63.7615 23.2178 63.4477 23.8102 63.4477 24.4027C63.4477 24.9952 63.4477 25.8839 63.4477 26.7726H61.5649C61.8787 25.8839 61.8787 24.9952 61.8787 24.1065C61.8787 23.8102 61.5649 23.2178 61.2511 22.329C60.9373 22.0328 60.6235 21.4403 59.9958 20.2554C59.3682 19.6629 59.0544 19.0704 59.0544 19.0704H61.2511C61.2511 19.0704 61.5649 19.6629 61.8787 20.8479C62.5063 22.0328 62.8201 22.6253 62.8201 22.9215C62.8201 22.6253 63.1339 22.0328 63.7615 20.8479C64.0753 19.9591 64.3891 19.3667 64.3891 19.0704H66.272Z" fill="#567BAE"/>
<path d="M72.5481 24.699C72.5481 26.4765 71.6067 27.0689 69.0962 27.0689C68.1548 27.0689 67.5272 27.0689 66.8996 26.7727L67.2134 25.5877C67.841 25.5877 68.4686 25.884 69.0962 25.884C69.7238 25.884 70.3515 25.884 70.6653 25.5877C70.9791 25.5877 70.9791 25.2915 70.9791 24.9953C70.9791 24.699 70.9791 24.4028 70.6653 24.1066C70.3515 24.1066 69.7238 23.8103 69.0962 23.5141C68.4686 23.2179 67.841 22.9216 67.5272 22.6254C67.2134 22.3291 66.8996 21.7367 66.8996 21.1442C66.8996 20.5517 67.2134 19.9592 67.841 19.3668C68.4686 19.0705 69.0962 18.7743 70.0376 18.7743C70.9791 18.7743 71.6067 19.0705 72.2343 19.0705L71.9205 20.5517C71.2929 20.2555 70.6653 20.2555 70.0376 20.2555C69.0962 20.2555 68.7824 20.5517 68.7824 20.848C68.7824 21.1442 68.7824 21.4404 69.0962 21.4404C69.0962 21.7367 69.7238 22.0329 70.3515 22.3291C70.9791 22.3291 71.6067 22.6254 71.9205 23.2179C72.5481 23.5141 72.5481 24.1066 72.5481 24.699Z" fill="#567BAE"/>
<path d="M80.3933 19.0704C80.3933 19.0704 80.0795 19.6629 79.4519 20.2554C78.8243 21.4403 78.5105 22.0328 78.1966 22.329C77.8828 23.2178 77.569 23.8102 77.569 24.4027C77.569 24.9952 77.569 25.8839 77.569 26.7726H75.6862C75.6862 25.8839 76 24.9952 76 24.1065C76 23.8102 75.6862 23.2178 75.0586 22.329C75.0586 22.0328 74.431 21.4403 73.8033 20.2554C73.4895 19.6629 73.1757 19.0704 73.1757 19.0704H75.3724C75.3724 19.0704 75.3724 19.6629 76 20.8479C76.6276 22.0328 76.9414 22.6253 76.9414 22.9215C76.9414 22.6253 77.2552 22.0328 77.8828 20.8479C78.1966 19.9591 78.5105 19.3667 78.5105 19.0704H80.3933Z" fill="#567BAE"/>
<path d="M86.6695 24.699C86.6695 26.4765 85.4142 27.0689 83.2176 27.0689C82.2762 27.0689 81.6486 27.0689 81.0209 26.7727L81.3347 25.5877C81.9624 25.5877 82.59 25.884 83.2176 25.884C83.8452 25.884 84.4728 25.884 84.4728 25.5877C84.7866 25.5877 85.1004 25.2915 85.1004 24.9953C85.1004 24.699 84.7866 24.4028 84.7866 24.1066C84.4728 24.1066 83.8452 23.8103 83.2176 23.5141C82.59 23.2179 81.9624 22.9216 81.6486 22.6254C81.3347 22.3291 81.0209 21.7367 81.0209 21.1442C81.0209 20.5517 81.3347 19.9592 81.9624 19.3668C82.2762 19.0705 83.2176 18.7743 84.159 18.7743C85.1004 18.7743 85.7281 19.0705 86.3557 19.0705L86.0419 20.5517C85.4142 20.2555 84.7866 20.2555 84.159 20.2555C83.2176 20.2555 82.59 20.5517 82.59 20.848C82.59 21.1442 82.9038 21.4404 82.9038 21.4404C83.2176 21.7367 83.8452 22.0329 84.4728 22.3291C85.1004 22.3291 85.7281 22.6254 86.0419 23.2179C86.3557 23.5141 86.6695 24.1066 86.6695 24.699Z" fill="#567BAE"/>
<path d="M92.9456 26.7726H91.0628C91.0628 25.5877 91.0628 24.4027 91.0628 22.9215C91.0628 21.4403 91.0628 19.9591 91.0628 19.0704H92.9456C92.6318 19.9591 92.6318 21.4403 92.6318 22.9215C92.6318 24.4027 92.6318 25.5877 92.9456 26.7726Z" fill="#567BAE"/>
<path d="M101.418 26.7726H99.8494C99.8494 26.7726 99.2218 25.8839 98.2803 24.4027C97.0251 22.6253 96.3975 21.4403 96.0837 20.8479C96.0837 21.7366 96.0837 22.6253 96.0837 23.2178C96.0837 24.4027 96.0837 25.5877 96.0837 26.7726H94.5146C94.8285 25.5877 94.8285 24.4027 94.8285 22.9215C94.8285 21.4403 94.8285 19.9591 94.5146 19.0704H96.3975C96.3975 19.3667 97.0251 20.2554 98.2803 21.7366C99.2218 23.2178 99.8494 24.1065 100.163 24.6989C100.163 23.8102 99.8494 23.2178 99.8494 22.329C99.8494 21.4403 99.8494 20.2554 99.8494 19.0704H101.418C101.418 19.9591 101.418 21.4403 101.418 22.9215C101.418 24.4027 101.418 25.5877 101.418 26.7726Z" fill="#567BAE"/>
<path d="M109.264 19.0704V20.2554C108.322 20.2554 107.381 20.2554 106.753 20.2554C106.753 21.1441 106.753 21.7366 106.753 22.9215C106.753 24.1065 106.753 25.5877 106.753 26.7726H104.87C105.184 25.5877 105.184 24.1065 105.184 22.9215C105.184 21.7366 105.184 21.1441 105.184 20.2554C104.556 20.2554 103.615 20.2554 102.674 20.2554V19.0704H109.264Z" fill="#567BAE"/>
<path d="M115.854 25.5877L115.54 26.7726H110.205C110.205 25.5877 110.205 24.4027 110.205 22.9215C110.205 21.4403 110.205 19.9591 110.205 19.0704H115.54L115.226 20.2554C113.971 20.2554 113.029 20.2554 111.774 20.2554C111.774 20.8479 111.774 21.4403 111.774 22.329C112.715 22.329 113.657 22.329 114.912 22.329V23.514C113.657 23.514 112.715 23.514 111.774 23.514C111.774 24.1065 112.088 24.9952 112.088 25.5877C113.029 25.5877 114.285 25.5877 115.854 25.5877Z" fill="#567BAE"/>
<path d="M124.013 26.7726H121.816C121.502 25.5877 121.188 24.6989 120.874 24.4027C120.561 23.8102 120.247 23.8102 119.619 23.8102C119.305 23.8102 118.992 23.8102 118.992 23.8102C118.992 24.6989 118.992 25.8839 118.992 26.7726H117.109C117.109 25.5877 117.109 24.4027 117.109 22.9215C117.109 21.4403 117.109 19.9591 117.109 19.0704H118.364C118.364 19.0704 118.678 19.0704 118.992 19.0704C119.305 19.0704 119.933 19.0704 120.247 19.0704C122.13 19.0704 123.071 19.6629 123.071 20.8479C123.071 22.0328 122.444 22.6253 121.502 22.9215V23.2178C121.816 23.2178 122.13 23.514 122.444 24.1065C122.757 24.6989 123.385 25.5877 124.013 26.7726ZM121.502 21.4403C121.502 20.5516 120.874 20.2554 119.933 20.2554C119.305 20.2554 118.992 20.2554 118.678 20.2554C118.678 20.8479 118.992 21.7366 118.992 22.6253H119.305C120.874 22.6253 121.502 22.329 121.502 21.4403Z" fill="#567BAE"/>
<path d="M130.916 25.5877V26.7726C130.289 27.0688 129.661 27.0688 129.033 27.0688C127.464 27.0688 126.523 26.7726 125.582 25.8839C124.954 25.2914 124.64 24.1065 124.64 23.2178C124.64 22.0328 124.954 21.1441 125.582 20.2554C126.523 19.3667 127.778 19.0704 129.033 19.0704C129.661 19.0704 129.975 19.0704 130.603 19.0704L130.289 20.5516C129.661 20.2554 129.347 20.2554 128.72 20.2554C128.092 20.2554 127.464 20.5516 126.837 21.1441C126.523 21.4403 126.209 22.329 126.209 22.9215C126.209 23.8102 126.523 24.4027 127.151 24.9952C127.464 25.5877 128.092 25.5877 129.033 25.5877C129.661 25.5877 130.289 25.5877 130.916 25.5877Z" fill="#567BAE"/>
<path d="M139.703 22.9216C139.703 24.1066 139.389 24.9953 138.762 25.884C137.82 26.7727 136.879 27.0689 135.623 27.0689C134.682 27.0689 133.741 26.7727 132.799 25.884C132.172 25.2915 131.858 24.4028 131.858 23.2179C131.858 22.0329 132.172 20.848 132.799 19.9592C133.741 19.3668 134.682 18.7743 135.937 18.7743C136.879 18.7743 137.82 19.3668 138.762 19.9592C139.389 20.848 139.703 21.7367 139.703 22.9216ZM138.134 22.9216C138.134 22.0329 137.82 21.4404 137.506 20.848C136.879 20.5517 136.251 20.2555 135.623 20.2555C134.996 20.2555 134.682 20.5517 134.054 20.848C133.741 21.4404 133.427 22.0329 133.427 22.9216C133.427 23.8103 133.741 24.4028 134.054 24.9953C134.682 25.5877 135.31 25.884 135.937 25.884C136.565 25.884 136.879 25.5877 137.506 24.9953C137.82 24.4028 138.134 23.8103 138.134 22.9216Z" fill="#567BAE"/>
<path d="M151 26.7726H149.117C149.117 26.1801 149.117 24.9952 148.803 23.514C148.803 21.7366 148.803 20.8479 148.803 20.5516H148.49C148.49 20.5516 148.49 21.1441 148.176 21.7366C148.176 22.329 147.862 23.2178 147.234 24.6989C146.607 25.8839 146.607 26.7726 146.607 26.7726H145.038C145.038 26.7726 144.724 25.8839 144.41 24.6989C143.782 23.2178 143.469 22.329 143.469 22.0328C143.155 21.4403 143.155 20.8479 143.155 20.5516H142.841C142.841 20.8479 142.841 22.0328 142.841 23.514C142.841 25.2914 142.527 26.4764 142.527 26.7726H140.958C140.958 26.7726 141.272 25.5877 141.586 23.2178C141.9 20.8479 141.9 19.6629 141.9 19.0704H144.41C144.41 19.3667 144.724 20.5516 145.038 22.0328C145.665 23.514 145.979 24.4027 145.979 24.9952C145.979 24.4027 146.293 23.514 146.921 22.0328C147.548 20.5516 147.862 19.3667 147.862 19.0704H150.372C150.372 19.9591 150.372 21.4403 150.686 23.514C150.686 25.5877 151 26.7726 151 26.7726Z" fill="#567BAE"/>
<path fill-rule="evenodd" clip-rule="evenodd" d="M62.5063 16.4044C52.4644 11.0721 40.8536 7.81346 29.8703 5.14733L33.9498 1C45.2469 4.25861 54.3473 9.59089 62.5063 16.4044C44.9331 13.442 27.6736 10.1834 10.4142 11.3683L13.5523 19.3667L1 6.33228C18.5732 4.55485 40.5397 9.29465 62.5063 16.4044Z" fill="#0BAED7"/>
<path d="M62.5063 16.4044C52.4644 11.0721 40.8536 7.81346 29.8703 5.14733L33.9498 1C45.2469 4.25861 54.3473 9.59089 62.5063 16.4044ZM62.5063 16.4044C44.9331 13.442 27.6736 10.1834 10.4142 11.3683L13.5523 19.3667L1 6.33228C18.5732 4.55485 40.5397 9.29465 62.5063 16.4044Z" stroke="#0BAED7" stroke-width="0.900684"/>
</svg>
