<svg width="80" height="60" viewBox="0 0 80 60" fill="none" xmlns="http://www.w3.org/2000/svg">
<rect x="0.1" y="0.1" width="79.8" height="59.8" fill="white"/>
<path d="M5 17.9735L7.46603 10.7523L12.359 16.7776L14.7664 17.6515L17.1594 45.5732L19.5983 41.4254L21.9088 8.31826L26.6262 14.5777L29.1934 9.75113L31.6002 17.6515L34.0391 49.3439L36.478 55L38.9169 14.5777L41.3237 5L46.1052 9.75113L48.3836 5L50.9188 41.2745L53.1651 48.1372L55.6682 7.48866L57.8825 14.5777L60.6422 16.7647L65.2954 11.6365L67.7908 50.584H70.2837L72.7092 17.6515L75 14.5777" stroke="#962DFF" stroke-linecap="round" stroke-linejoin="round"/>
<rect x="0.1" y="0.1" width="79.8" height="59.8" stroke="black" stroke-width="0.2"/>
</svg>
