<svg width="15" height="15" viewBox="0 0 15 15" fill="none" xmlns="http://www.w3.org/2000/svg">
<g clip-path="url(#clip0_204_52)">
<path d="M2.5 0.625C1.80625 0.625 1.25 1.18125 1.25 1.875V4.375C1.25 5.06875 1.80625 5.625 2.5 5.625H0.625V6.875H8.125V5.625H6.25C6.94375 5.625 7.5 5.06875 7.5 4.375V1.875C7.5 1.18125 6.94375 0.625 6.25 0.625H2.5ZM2.5 1.875H6.25V4.375H2.5V1.875ZM1.875 8.125V12.5H6.25V11.25H3.125V8.125H1.875ZM8.75 8.125C8.05625 8.125 7.5 8.68125 7.5 9.375V11.875C7.5 12.5688 8.05625 13.125 8.75 13.125H6.875V14.375H14.375V13.125H12.5C13.1938 13.125 13.75 12.5688 13.75 11.875V9.375C13.75 8.68125 13.1938 8.125 12.5 8.125H8.75ZM8.75 9.375H12.5V11.875H8.75V9.375Z" fill="#17A54F"/>
</g>
<defs>
<clipPath id="clip0_204_52">
<rect width="15" height="15" fill="white"/>
</clipPath>
</defs>
</svg>
