<svg width="625" height="209" viewBox="0 0 625 209" fill="none" xmlns="http://www.w3.org/2000/svg">
<path d="M378.469 208.996L377.201 209L376.792 208.867L376.69 207.757L377.065 207.136L380.005 206.337L381.152 205.601L382.785 204.07L383.795 203.671L384.053 203.497L384.228 203.528L384.388 204.696L384.796 205.388L384.869 205.752L383.401 206.342L382.09 207.7L379.232 208.587L378.469 208.996ZM363.934 204.98L363.254 205.13L361.791 204.767L361.494 204.545L362.748 203.937L363.71 203.076L364.833 203L365.499 203.178L365.271 204.203L363.934 204.98ZM384.84 201.359L383.611 201.798L383.606 200.875L384.553 199.708L385.418 199.313L385.899 199.779L385.943 199.992L384.689 200.409L384.84 201.359ZM338.421 189.706L339.038 190.269L341.269 191.356L341.633 191.813L341.774 192.568L342.221 193.127L343.227 193.216L344.301 193.1L345.123 193.46L345.832 194.023L346.882 195.119L347.805 196.331L348.952 197.01L349.608 198.021L349.224 198.913L347.771 200.147L346.989 200.413L345.915 200.511L344.243 201.248L343.631 200.866L341.735 200.6L340.224 200.067L338.956 199.095L338.227 198.052L337.304 197.13L335.695 196.513L332.809 194.702L331.025 194.538L330.296 194.671L329.562 194.68L325.781 193.868L325.194 193.393L324.732 192.785L324.309 192.186L324.052 191.516L324.537 190.921L325.043 190.522L327.147 189.821L328.653 189.608L330.398 189.639L332.998 189.422L335.462 189.772L336.22 189.51L337.464 188.782L337.897 189.035L338.421 189.706ZM405.581 185.681L406.081 185.818L407.811 185.064L408.137 185.206L408.472 185.547L408.477 186.555L407.811 187.394L406.13 187.46L405.892 187.695L405.872 188.206L406.003 188.703L406.392 189.102L406.893 189.803L407.364 191.436L406.412 192.106L405.931 193.366L404.278 194.551L402.461 196.491L401.003 197.48L399.725 198.652L398.627 199.437L397.251 199.703L395.196 199.872L392.402 201.274L390.856 201.887L389.35 201.931L387.94 201.474L387.406 200.959L387.532 200.267L387.999 199.672L388.567 199.184L388.927 198.554L387.333 197.755L387.197 197.147L387.829 195.528L388.242 193.863L388.835 192.728L391.119 190.7L392.484 189.692L393.291 189.302L393.515 189.728L394.025 190.242L394.37 190.327L394.632 190.211L396.644 190.389L397.149 190.211L397.917 189.408L398.422 188.96L398.763 188.01L398.85 187.407L400.639 186.968L401.596 186.484L402.446 185.796L404.925 184.624L405.367 184.301L405.27 185.414L405.581 185.681ZM278.376 182.126L277.997 182.557L276.889 181.789L276.607 181.443L277.429 180.946L277.715 180.875L278.425 181.416L278.376 182.126ZM378.858 179.317L378.421 180.054L377.638 179.845L377.852 179.135L378.25 178.714L379.31 178.101L380.389 177.995L381.05 178.208L381.258 178.443L379.577 178.683L378.858 179.317ZM330.942 181.767L330.413 181.887L329.878 181.705L330.097 180.591L329.791 179.832L330.345 179.237L330.486 178.186L330.709 177.866L331.035 178.199L331.185 178.416L331.467 178.518L332.079 178.536L332.216 178.993L332.191 179.424L331.929 179.876L331.2 180.36L330.675 180.906L330.942 181.767ZM383.494 176.934L383.217 177.485L379.504 177.449L379.606 176.726L380.637 175.936L380.981 175.674L382.119 175.443L383.742 175.86L383.494 176.934ZM292.44 180.174L290.715 182.765L291.332 183.182L291.701 183.577L288.844 184.114L287.653 183.83L286.963 183.906L284.062 183.417L281.987 182.823L281.749 182.352L281.914 181.789L282.526 181.98L284.125 182.068L284.737 181.815L284.752 180.147L284.529 177.968L286.691 176.193L287.843 175.474L289.165 175.053L292.508 176.033L293.062 176.3L293.49 176.699L293.698 177.338L292.44 180.174ZM396.717 176.619L395.886 177.391L395.322 178.736L394.807 179.144L393.704 179.397L393.038 178.048L391.819 178.11L392.416 176.921L392.99 176.477L393.738 176.468L394.107 176.948L394.306 177.05L396.066 175.039L396.42 175.017L396.717 175.106L396.955 175.359L396.717 176.619ZM391.779 175.905L389.855 176.246L388.679 177.808L387.746 177.786L387.236 178.479L387.119 178.776L387.187 179.055L387.085 179.322L386.716 179.597L385.841 179.166L385.093 179.717L384.777 179.85L383.674 179.211L382.629 179.251L382.313 179.153L383.611 178.008L385.38 176.939L385.671 176.544L384.976 176.437L384.563 176.277L384.51 176.025L385.627 175.856L386.4 175.834L386.988 176.162H387.362L389.753 174.902L390.701 175.186L391.391 175.51L391.779 175.905ZM595.95 177.36L595.275 177.524L591.844 177.147L591.479 176.632L591.426 176.366L592.208 175.856L592.966 174.991L594.142 174.667H594.599L595.979 176.717L595.95 177.36ZM304.924 177.094L304.618 177.103L304.025 176.859L304.239 176.34L303.918 175.492L304.03 174.795L304.788 174.4L306.406 174.356L306.465 174.866L304.924 177.094ZM325.621 175.483L325.023 175.496L324.902 174.995L325.116 174.471L325.689 174.25L325.952 174.236L326.365 174.711L326.457 174.96L326.073 175.288L325.621 175.483ZM400.653 174.258L400.979 175.017L402.033 174.596L403.063 174.489L405.406 174.569L407.126 174.738L408.142 175.053L408.239 176.575L407.763 176.903L398.865 178.052L397.995 177.684L397.655 177.32L398.612 176.193L398.17 175.656L398.675 174.782L399.739 174.187L400.653 174.258ZM444.953 173.735L447.339 174.236L448.705 174.183L448.987 174.631L447.679 175.692L444.914 174.875L444.443 174.001L444.953 173.735ZM376.205 180.151L374.28 180.595L373.085 181.017L371.943 181.576L371.223 181.691L369.916 181.736L368.065 181.634L366.816 181.815L363.332 183.262L361.961 183.386L360.775 183.741L360.367 183.178L359.862 182.761L358.705 182.659L357.549 182.69L356.373 183.968L354.497 183.697L353.773 183.808L353.068 184.079L352.373 184.199L351.644 184.11L348.908 183.116L345.769 182.526L342.62 182.756L339.908 182.211L338.421 182.628L337.022 183.222L336.609 182.596L336.099 182.046L335.642 181.221L335.627 180.285L335.778 179.632L336.181 179.033L336.434 178.412L336.55 177.746L337.143 178.061L337.76 177.942L339.607 177.218L341.41 176.122L343.087 175.723L344.053 175.612L344.88 175.829L345.72 175.749L346.581 175.505L347.936 176.344L348.505 176.517L350.342 176.584L352.013 177.067L353.51 177.795L355.668 178.474L356.97 179.388L357.962 179.725L358.695 179.819L359.371 179.694L360.226 179.082L361.222 178.829L362.087 178.838L363.667 178.678L364.337 178.532L365.081 178.195L365.81 178.403L366.451 178.714L369.124 180.316L369.945 180.36L371.452 180.014L371.904 179.583L372.137 178.922L372.55 178.372L373.123 177.897L373.775 177.533L375.772 176.916L377.137 176.308L378.076 175.279L375.884 174.826L376.345 174.085L377.074 173.668L378.042 173.823L378.882 174.4L379.256 176.615L378.566 176.925L378.129 177.263L377.837 177.706L376.593 178.518L377.084 179.535L376.72 179.956L376.205 180.151ZM486.396 176.482L485.21 176.872L486.002 175.882L488.548 173.637L489.462 174.054L490.677 174.134L488.864 175.15L487.018 175.572L486.396 176.482ZM314.279 176.473L314.964 176.965L315.586 176.921L316.889 176.167L317.671 175.891L318.512 175.882L319.323 176.007L320.125 176.544L320.416 177.418L320.718 177.689L321.189 176.641L321.816 176.326L322.521 176.167L323.624 176.224L324.464 176.726L325.228 178.212L325.203 179.512L325.48 180.001L326.005 180.356L326.394 180.857L326.049 181.381L325.704 181.634L324.717 181.873L324.241 181.771L323.799 181.416L323.308 181.287L322.19 181.407L321.16 181.7L321.301 182.175L322.146 182.388L322.399 182.614L322.346 182.92L322.015 182.983L320.917 182.57L320.178 182.654L317.515 183.213L316.811 183.2L316.412 182.672L316.441 181.296L316.155 180.932L314.177 182.601L313.579 183.009L312.782 183.2L311.951 183.133L309.094 184.145L308.195 184.003H307.325L304.273 185.099L302.635 185.406L301.795 185.428L300.959 185.334L300.21 185.432L299.54 185.876L298.179 186.249L296.775 185.965L295.589 185.587L294.461 185.09L294.18 184.451L294.238 183.688L294.714 182.645L294.393 180.813L294.641 179.978L295.103 179.157L295.803 178.856L296.716 178.794L298.228 178.057L299.608 177.089L300.405 177.183L302.222 177.857L303.286 177.937L305.094 177.831L305.838 178.243L306.134 179.193L306.538 179.539L307.067 179.783L308.35 181.39L309.541 181.305L310.581 181.598L312.418 180.626L313.807 180.653L314.201 179.898L313.37 179.091L312.369 178.439L311.83 178.301L311.241 178.341L310.717 178.239L308.477 176.774L307.811 175.985L307.432 175.057L307.66 174.369L309.201 173.761L309.92 173.615L312.598 174.032L313.054 174.378L313.764 175.843L314.279 176.473ZM276.165 174.44L277.55 175.101L279.479 177.045L279.659 177.591L279.076 178.106L277.696 178.931L274.61 180.205L274.08 180.804L273.429 181.98L273.279 182.481L273.06 182.756L272.705 182.956L272.034 183.129L271.306 182.881L271.966 182.126L271.991 181.225L271.5 180.382L270.805 179.677L269.406 178.718L267.904 177.87L266.388 177.436L264.779 177.24L264.201 176.828L263.258 175.772L262.952 175.195L262.796 174.591L262.898 174.005L263.297 173.97L264.871 174.107L267.777 174.795L269.216 174.853L270.032 174.693L272.161 173.335L272.666 173.357L274.702 173.957L276.165 174.44ZM472.439 171.933L471.632 173.082L470.724 173.007L469.066 171.467L469.163 170.393L469.3 170.043L469.936 169.936L472.079 170.247L472.497 171.117L472.439 171.933ZM431.001 168.352L431.186 168.96L431.161 169.226L429.529 169.421L427.954 170.096L427.148 170.872L426.516 171.88L424.348 171.472L422.414 171.405L421.559 171.05L420.631 171.072L419.426 171.383L417.71 172.235L417.331 172.301L417.467 171.006L417.944 170.207L419.746 168.294L421.248 168.716L422.993 168.836L424.98 168.463L426.394 167.602L428.392 167.149L429.985 168.277L431.001 168.352ZM439.442 167.793L438.563 168.086L438.835 167.163L438.777 166.417L440.201 166.643L440.186 167.238L440.05 167.469L439.442 167.793ZM591.042 175.918L587.781 177.564L583.505 177.276L581.989 177.249L579.476 177.649L578.971 177.329L579.447 175.78L581.454 171.658L583.84 168.028L584.856 167.087L586.27 166.204L587.772 165.494L591.159 164.758L594.24 164.891L594.682 165.192L596.008 166.399L596.868 167.353L597.228 168.703L595.916 171.023L594.454 173.238L592.082 174.977L591.042 175.918ZM492.713 172.492L492.489 172.634L490.793 172.475L489.827 172.47L489.953 171.525L489.452 170.815L490.138 169.772L490.152 168.565L490.862 168.401L490.964 167.713L491.819 165.889L492.324 165.485L493.034 165.326L493.879 164.261L494.36 163.95L494.861 163.142L495.575 162.77L495.517 162.077L495.921 161.713L497.048 161.429L497.83 161.771L498.311 162.477L497.053 163.346L497.699 165.49L496.785 167.828L496.188 168.529L495.07 169.133L494.735 169.705L493.418 170.859L493.019 171.844L492.961 172.262L492.713 172.492ZM501.664 162.539L501.494 163.156L500.911 162.827L500.338 162.108L499.497 162.006L498.875 161.815L498.511 161.478L500.848 161.323L501.664 162.539ZM262.048 161.682L261.844 162.179L261.149 162.055L260.493 161.234L260.809 161.021L261.173 160.932L261.65 161.026L262.048 161.682ZM456.5 162.308L455.887 162.623L454.867 161.971L454.585 161.7L455.231 161.061L455.921 160.879L456.339 161.159L456.543 161.438L456.456 161.745L456.5 162.308ZM348.811 161.505L347.421 161.576L346.989 161.465L346.887 160.249L348.413 160.773L348.908 160.808L348.811 161.505ZM254.302 161.336L254.039 161.518L251.721 161.416L250.229 162.432L249.195 162.743H245.482L245.039 162.605H244.709L244.51 162.809L243.329 162.654L239.558 161.753L239.043 160.919L239.626 160.027L240.982 158.762L243.698 158.514L256.076 158.425L257.422 159.512L257.548 159.881L254.851 160.622L254.302 161.336ZM275.203 159.654L274.09 159.867L273.06 159.428L273.089 158.838L273.342 158.288L274.882 158.004L275.708 158.021L276.593 158.398L277.21 158.794L277.511 159.255L275.844 159.277L275.203 159.654ZM538.383 156.903L538.155 157.094L537.8 156.69L537.766 156.437L538.238 155.749L538.704 155.35L539.224 155.319L539.093 155.882L538.383 156.903ZM137.123 155.541L136.272 155.816L135.621 155.572L135.329 155.221L136.292 154.36L136.748 154.156L137.23 154.09L137.458 154.556L137.123 155.541ZM538.952 154.409L538.199 154.525L537.829 153.508L538.451 153.247L539.127 153.868L538.952 154.409ZM540.361 152.971L540.031 153.073L540.036 152.461L540.41 151.92L540.804 151.609L541.27 151.596L540.361 152.971ZM536.508 153.073L536.284 153.952L536.06 154.933L534.812 156.033L534.039 157.715L533.587 158.137L531.911 158.887L530.419 157.95L529.986 157.147L530.642 153.437L531.284 153.562L531.702 153.535L531.838 153.291L530.88 152.874L530.701 150.744L530.749 149.941L531.473 149.759L532.377 150.384L533.514 151.498L534.841 152.377L536.508 153.073ZM166.052 147.664L167.427 149.084L168.627 149.843L170.046 150.256L171.538 150.296L173.006 150.478L174.716 151.019L176.471 151.267L177.287 151.174L178.065 150.895L178.614 150.877L179.095 151.139L180.31 152.341L181.627 153.442L181.933 154.001L182.827 156.655L183.838 157.418L185.228 157.64H186.861L188.484 157.751L192.245 158.372L193.737 158.283L195.059 157.662L196.235 158.066L199.427 158.811L200.997 158.98L202.781 158.767L204.569 158.723L205.424 158.94L206.245 159.264L206.95 159.379L207.679 159.375L208.972 158.754L209.827 157.613L210.522 156.175L211.061 154.675L211.426 154.032L211.921 153.464L212.568 153.096L213.258 152.865L215.134 153.007L215.522 153.371L217.622 155.913L217.991 156.135L220.178 156.295L220.785 156.211L222.117 155.701L222.88 155.656L224.284 156.286L224.892 156.823L225.572 157.218L229.013 157.622L230.339 158.714L231.015 158.86L233.406 158.727L235.063 158.833L236.501 159.126L237.157 160.675L237.687 162.264L237.993 162.805L239.402 163.351L239.976 163.843L239.825 165.428L239.98 166.936L242.969 168.25L246.167 169.004L249.569 169.075L252.975 168.813L254.73 168.49L256.926 167.93L257.383 167.939L261.635 169.665L261.999 169.932L262.476 171.223L262.461 172.585L261.669 175.82L261.616 176.708L261.693 177.595L262.539 179.526L262.991 180.08L264.531 181.097L264.594 181.629L264.381 182.162L262.68 181.798L261.645 181.358L261.047 180.631L260.192 180.218L258.593 180.369L255.604 179.641L252.227 178.514L246.24 176.122L244.607 176.14L243.042 176.446L241.39 177.054L239.67 177.489L238.406 177.653L237.138 177.533L233.94 176.961L230.718 176.588L222.462 176.353L220.129 175.807L216.266 175.532L213.195 175.062L210.152 174.405L202.397 171.17L199.86 170.358L192.07 168.813L190.87 168.689L188.046 168.805L186.268 168.352L184.703 168.343L182.375 168.844L181.661 169.204L180.757 169.963L179.173 169.927L177.603 169.781L173.468 169.053L171.927 168.605L170.445 167.944L169.113 167.083L168.413 166.777L164.842 165.898L161.926 165.596L155.929 165.197L154.617 164.931L153.524 164.611L152.926 163.901L153.004 162.996L153.431 162.215L154.019 161.429L154.403 160.679L150.02 159.108L146.56 158.252L145.063 158.088H143.562L141.87 158.265L140.199 158.181L139.412 157.924L138.61 157.835L137.803 158.021L137.157 157.95L136.991 157.236L137.404 156.628L138.25 155.94L138.736 155.82L138.955 156.899L139.198 157.112L139.946 157.347L140.272 157.28L141.593 155.905L141.963 155.226L142.604 153.393L143.304 153.748L144.004 153.531L144.407 153.238L145.52 149L146.443 147.762L147.707 146.737L148.339 146.484L149.578 147.114L152.09 147.353L153.582 147.771L155.079 147.824L156.541 148.028L158.578 148.774L159.297 148.694L160.026 148.463L161.119 147.651L161.596 146.355L163.17 147.012L165.488 147.274L166.052 147.664ZM393.505 147.243L393.383 147.837L392.883 147.154L392.426 146.817L392.474 146.08L393.121 146.355L393.505 147.243ZM345.458 151.285L344.899 153.357L344.637 152.625L344.535 150.73L344.19 149.807L344.408 148.747L344.335 146.027L344.758 144.771L345.536 146.368L345.74 147.18L345.458 151.285ZM238.955 145.219L238.664 145.663L237.352 145.627L237.133 145.13L237.988 144.225L238.552 144.167L239.057 144.5L238.955 145.219ZM512.919 145.712L512.088 146.91L511.525 146.488L511.209 146.484L511.014 145.778L511.209 144.323L510.509 142.685L511.427 142.707L511.685 143.195L511.976 143.36L512.885 144.939L512.919 145.712ZM539.375 143.923L539.268 144.402L539.258 145.286L539.487 146.106L538.903 146.941L539.448 148.188L539.53 148.809L539.496 149.688L539.346 150.083L538.932 151.236L538.52 151.649L538.208 151.764L537.893 152.115L535.21 151.738L534.054 150.935L533.018 150.069L532.8 149.705L531.585 148.694L531.303 148.352L531.279 147.811L532.26 147.673L533.31 147.691L533.261 147.207L533.869 145.494L532.275 144.394L531.993 143.932L532.562 143.621L533.845 144.003L535.414 142.073L535.876 141.669L536.1 140.595L536.979 140.457L537.601 140.595L538.004 141.265L538.165 141.846L537.995 142.37L538.748 142.641L539.375 143.923ZM514.547 146.351L513.435 147.42L514.479 144.899L514.698 143.621L515.67 142.863L517.113 139.002L517.434 139.091L517.905 139.468L517.181 142.299L515.155 144.287L514.547 146.351ZM97.7697 141.088L96.6568 141.15L94.6061 139.623L94.2709 139.153L94.849 138.7L95.4662 138.731L97.8281 139.694L98.2896 140.169L97.7697 141.088ZM387.712 138.514L387.659 139.774L387.114 139.703L386.667 139.259L386.546 138.842L386.57 138.505L386.813 138.239L387.712 138.514ZM366.116 140.582L365.246 140.915L363.608 139.495L362.914 138.323L363.079 137.662L363.57 137.085L363.803 136.938L363.701 136.335L364.347 136.042L365.057 136.082L365.523 136.894L366.082 137.116L366.369 137.893L366.116 140.582ZM374.324 138.487L373.974 139.313L373.221 139.956L372.618 140.005L371.986 139.872L370.874 139.313L370.587 139.903L369.707 139.876L369.387 139.113L370.014 136.854L370.927 136.011L370.84 135.124L370.081 133.238L370.553 132.252L372.676 131.507L374.528 130.597L375.096 130.411L375.612 131.112L375.889 134.325L373.901 136.867L374.324 138.487ZM381.618 129.568L381.934 132.239L381.832 132.94L381.064 131.915L380.787 131.711L380.573 131.915L380.301 132.026L379.912 132.017L379.407 133.051L379.358 134.028L378.975 134.68L378.775 136.859L378.902 137.444L379.495 137.156L379.859 137.081L381.2 137.919L381.91 138.532L381.711 139.273L380.802 140.018L379.747 140.342L378.96 140.023L378.727 140.173L378.26 140.555L377.91 141.061L378.012 141.58L377.113 143.058L376.593 143.475L375.514 143.022L374.849 143.408L374.314 143.373L373.493 141.895L373.517 141.203L374.275 140.426L374.28 139.867L374.654 139.242L375.49 138.385L375.971 137.737L375.986 137.329L376.341 135.776L376.477 135.128L376.72 134.44L377.099 133.034L377.152 130.389L378.43 128.21L379.679 127.615L380.175 127.518L380.097 128.099L381.618 129.568ZM523.333 125.783L524.033 126.444L522.41 125.924L520.087 124.837L519.927 124.11L521.88 125.21L523.333 125.783ZM382.469 124.132L381.137 125.623L380.209 125.547L379.096 124.567L378.775 123.493L378.746 123.102L379.504 122.494L382.055 122.698L382.537 123.24L382.469 124.132ZM455.032 117.591L452.704 118.239L453.205 117.032L453.521 116.712L454.672 117.041L455.032 117.591ZM451.115 118.696L450.765 119.148L449.973 119.446L449.312 119.415L449.526 118.98L449.361 118.727L448.87 118.838L448.068 119.188L447.057 119.889L446.465 119.543L446.338 119.002L446.372 118.753L447.582 117.782L448.987 117.613L450.964 116.681L451.849 116.725L451.64 117.316L451.334 117.737L451.149 118.181L451.115 118.696ZM457.209 117.112L457.18 117.635L457.083 117.799L456.339 117.617L455.809 117.626L455.338 116.681L455.469 116.464L456.446 116.739L456.81 116.832L457.209 117.112ZM289.48 116.091L288.98 118.225L288.149 117.014L289.082 115.581L289.515 115.292L289.48 116.091ZM441.989 114.24L442.3 114.791L440.963 114.444L440.37 113.912L440.954 113.579L441.279 113.49L441.989 114.24ZM287.838 121.096L284.976 123.404L284.499 122.818L284.747 120.471L283.95 119.011L284.004 117.928L284.567 116.011L285.301 114.542L286.963 113.562L287.376 113.446L287.274 115.226L287.605 115.896L287.721 116.468L287.546 116.961L287.857 119.242L288.042 119.796L287.638 120.515L287.838 121.096ZM431.823 111.427L434.068 112.394L434.573 113.025L434.976 113.774L435.419 114.187L435.943 114.524L436.818 115.177L437.046 116.171L436.847 118.176L435.832 118.354L434.879 118.647L432.916 119.81L431.949 120.036L430.914 120.116L430.18 120.422L429.446 120.542L427.536 119.898L425.69 119.144L423.007 117.835L422.512 117.515L422.079 116.814L420.85 115.554L420.543 114.746L420.441 112.448L420.762 111.92L421.277 111.64L423.07 112.172L424.251 111.618L427.643 111.147L431.098 111.196L431.823 111.427ZM447.193 109.55L446.508 110.584L445.308 110.54L445.099 110.393L446.518 109.745L447.193 109.55ZM159.404 110.402L159.175 110.65L158.422 110.517L157.873 110.171L157.533 109.843L157.446 109.501L158.179 109.08L159.729 109.514L159.404 110.402ZM167.408 109.093L166.858 109.412L166.538 109.106L166.44 108.764L166.674 108.334L167.422 108.294L167.767 108.423L167.408 109.093ZM471.287 108.676L474.422 110.047L476.045 110.247L478.776 110.069L479.806 110.202L482.411 111.955L483.169 113.158L483.387 114.196L483.791 115.181L484.432 115.43L485.186 115.523L486.167 116.943L486.362 117.404L485.618 120.968L482.552 119.619L479.592 118.088L478.314 117.52L474.903 116.224L474.383 115.78L473.999 115.194L472.512 114.396L469.548 114.272L468.435 114.294L467.983 114.413L468.099 114.844L468.114 115.718L467.38 115.958L465.538 115.407L463.896 115.208L462.467 114.666L460.557 114.382L460.343 114.112L460.509 113.708L460.421 113.331L459.979 113.184L459.119 113.255L458.288 113.637L457.598 114.067L456.587 115.257L456.072 115.714L454.4 115.909L453.705 115.794L453.068 115.501L451.168 113.326L450.527 112.856L449.813 112.474L449.152 112.297L448.467 112.63L448.112 113.304L447.951 114.107L447.762 114.569L446.941 115.856L446.26 116.619L446.017 116.499L446.363 115.274V114.582L445.945 113.85L445.677 113.104L448.889 109.541L450.051 108.693L455.114 108.401L458.123 108.583L459.765 108.494L460.863 108.232L461.772 108.356L462 109.057L462.569 109.577L463.361 109.532L464.799 108.982L466.049 108.134L466.811 107.766L467.589 107.704L468.391 107.762L469.173 107.957L471.287 108.676ZM71.2801 112.603L71.8244 114.409L70.2014 113.18L70.2352 112.31L70.0119 111.742L69.0301 111.045L68.272 110.171L67.9318 108.108L68.1943 107.677L68.8358 107.651L71.6883 110.358L71.8828 110.815L71.8197 111.782L71.4065 112.084L71.2801 112.603ZM177.418 110.309L177.205 111.613L176.874 112.106L175.737 112.754L175.348 113.149L174.284 113.087L174.148 112.403L173.793 111.942L172.666 111.409L172.369 111.538L172.165 112.332L169.954 112.887L169.337 112.936L169.643 111.888L169.07 111.063L169.026 110.051L168.919 109.608L168.642 109.35L169.206 108.645L169.108 107.859L169.706 107.016L170.037 104.97L172.374 104.522L172.879 104.89L175.606 105.352L177.53 106.59L178.556 108.236L177.418 110.309ZM68.2672 107.127L67.2952 108.125L65.6915 108.103L65.3756 107.486L65.4486 105.995L65.055 105.507L65.0695 105.312L65.3273 104.464L65.6526 104.278L68.2429 106.377L68.2672 107.127ZM534.292 99.4856L533.893 99.6719L533.757 99.135L533.971 98.4117L534.229 98.2963L534.525 98.3318L534.909 98.5936L534.292 99.4856ZM63.3445 102.201L63.4124 102.53L61.1917 101.442L60.1224 101.141L59.1748 99.9515L59.4714 99.3835L59.5102 98.5848L59.6511 98.2696L60.3315 98.1543L61.216 98.7356L61.8769 100.151L62.9799 101.469L63.3445 102.201ZM420.835 103.541L420.602 103.768L419.78 103.098L419.231 101.207L418.76 100.706L418.211 98.9087L418.352 98.3983L419.032 97.644L419.576 97.6528L419.98 98.101L419.756 100.036L420.976 102.485L420.835 103.541ZM390.735 97.4043L390.978 97.9013L390.123 97.888L389.768 96.9517L389.855 96.4502L390.735 97.4043ZM420.412 95.3498L424.606 95.7624L424.013 96.2107L419.489 96.925L417.885 96.7964L412.977 97.2179L412.34 97.1913L412.248 96.4991L411.723 96.0154L412.506 95.5938L413.545 95.4962L416.267 95.656L420.412 95.3498ZM381.244 95.6825L380.243 96.7032L380.136 96.1574L380.34 95.6604L380.622 95.3098L381.045 95.1367L381.244 95.6825ZM479.451 94.125L479.616 94.8616L480.428 95.5406L480.146 96.5967L479.826 96.7564L479.996 97.2357L480.345 97.604L479.714 97.857L479.252 97.7327L478.509 98.0744L478.013 98.5491L476.453 98.7489L475.904 98.3096L473.085 97.7904L471.282 96.6544L471.054 96.3126L474.548 94.977L476.074 94.622L477.357 94.6442L478.97 94.1472L479.451 94.125ZM406.028 94.3069L407.306 94.7462H407.753L408.176 94.2314L408.438 94.1472L409.012 94.4L409.143 95.2344L409.969 95.119L410.61 95.403L410.815 95.6027L410.727 96.4325L408.283 96.5789L406.538 97.2489L404.191 96.6455L401.528 97.6795L399.91 98.0389L398.505 98.0167L397.305 96.2062L398.005 94.0851L398.51 93.7344L399.404 93.5481L401.873 93.446L406.028 94.3069ZM549.293 92.9002L554.678 93.5214L556.136 93.4417L559.212 93.6812L561.778 94.5066L566.263 94.6575L567.599 94.906L568.634 95.474L566.122 95.9399L564.941 96.3793L562.745 96.5967L560.908 96.3748L559.571 96.6366L559.085 96.2107L557.132 95.7757L554.629 94.8838L549.468 93.8498L549.225 93.202L549.293 92.9002ZM187.59 93.2464L186.025 93.7656L185.553 92.6028L186.554 92.2567L187.643 92.5586L187.59 93.2464ZM147.935 93.8631L148.406 94.7152L149.048 95.4829L149.519 96.3126L150.166 100.293L152.304 103.714L158.48 105.059L157.47 105.614L156.955 106.111L156.576 106.679L155.667 109.053L155.754 109.559L156.289 110.362L156.415 111.236L155.642 111.232L154.773 111.037L154.078 110.708L153.431 110.278L152.732 109.936L151.973 109.714L150.72 109.035L149.024 108.556L147.294 108.179L146.453 107.171L146.055 105.929L146.482 104.074L146.05 103.559L145.432 103.107L144.674 101.771L144.388 100.209L143.289 99.6053L141.841 99.2371L141.205 98.9397L138.342 99.5121L137.652 99.379L137.045 98.9442L135.485 98.4871L135.548 97.6218L136.272 96.9295L137.978 96.2329L138.78 95.647L138.935 94.875L138.634 94.3113L138.75 93.7212L139.29 93.1487L139.927 92.7005L141.647 92.1058L142.395 93.1398L142.765 94.0051L143.222 94.6308L143.95 93.7344L143.484 92.1902L144.791 91.8441L146.074 91.8308L147.041 92.2567L147.673 92.9224L147.935 93.8631ZM387.314 94.2936L386.376 94.3735L385.749 94.0096L385.807 92.1947L386.376 91.7996L386.653 91.8663L386.823 92.4077L387.109 92.8913L387.576 93.344L387.314 94.2936ZM449.443 93.7522L448.608 94.2537L448.19 94.3912L446.178 94.0539L443.826 94.125L441.377 94.5909L439.962 94.196L439.063 93.5526L439.107 92.8736L439.948 91.1917L441.789 89.9182L442.538 89.6874L443.855 90.0336L446.066 91.0099L447.806 92.1547L449.385 93.0466L449.443 93.7522ZM382.06 87.6994L382.362 88.4715L381.866 89.1415L382.405 90.3975L383.781 88.7244L385.093 88.5114L385.836 88.7911L386.346 89.1238L386.628 89.7584L386.142 91.1208L385.282 91.7597L384.169 91.8618L383.645 91.0675L382.916 90.9921L382.405 92.7227L382.177 92.9889L381.526 93.2064L380.948 92.7316L380.845 92.4654L381.667 91.6799L381.22 89.3501L380.602 89.7894L378.955 91.9062L377.672 92.8513L377.235 92.3721L376.584 90.9344L376.88 89.0883L377.915 87.8413L378.795 87.9257L381.326 87.5352L382.06 87.6994ZM197.916 87.8148L195.195 89.0795L194.553 89.0129L194.067 88.5646L194.368 86.124L194.718 85.3963L196.614 85.3164L197.766 85.667L198.368 86.0619L198.601 86.8785L198.47 87.371L197.916 87.8148ZM542.359 87.0159L541.703 87.2424L540.944 86.9939L540.225 86.0441L540.483 85.3164L541.323 84.815L542.028 85.3164L542.247 85.9554L542.782 85.9999L542.359 87.0159ZM54.0821 95.2077L52.8233 95.2743L50.1313 93.7921L49.4945 93.1265L49.339 92.239L46.7586 88.8131L46.4136 88.0278L47.4292 85.2144L50.0583 84.5354L50.9283 85.0102L51.2343 86.2749L52.7408 88.5558L53.2364 89.7851L53.6108 90.3308L53.7662 90.7569L53.6351 91.0498L54.7236 92.4964L55.501 93.344L55.5595 94.7152L54.0821 95.2077ZM488.296 89.4832L487.815 89.8294L486.158 89.5054L485.297 88.7422L484.714 87.7172L484.34 86.874L484.238 86.2039L483.742 85.383L483.81 85.0856L486.867 84.2204L487.445 84.5354L488.723 84.5621L489.277 85.1877L488.898 87.908L488.296 89.4832ZM486.984 82.8269L486.634 83.4572L485.988 83.8831L480.122 84.6375L480.627 84.1848L480.875 83.7367L481.245 83.5059L481.823 83.5681L482.114 83.4305L482.411 83.3773L482.736 83.4349L483.305 83.2485L484.5 83.3816L485.735 83.2751L485.642 82.6717L486.984 82.8269ZM548.049 81.2649L550.95 81.7486L552.01 81.722L553.045 82.2679L554.304 82.0104L555.013 82.188L557.399 84.0651L558.575 85.3076L560.315 86.377L561.578 86.7409L560.631 87.7172L558.706 88.2319L557.968 88.2585L556.495 87.6772L555.305 87.7837L554.265 87.0559L554.085 85.9288L553.011 83.3905L551.631 84.1183L549.969 82.9467L549.517 82.9202L549.415 83.1153L548.71 82.7204L548.107 81.9305L548.049 81.2649ZM437.819 82.8713L437.664 83.1243L436.24 82.8003L435.856 82.6228L436.57 80.87L437.241 80.9232L437.829 82.5918L437.819 82.8713ZM483.183 79.7517L482.401 79.7651L480.987 79.2281L481.808 78.7622L482.328 78.6645L482.785 78.385L483.038 78.3716L483.597 78.6113L483.966 79.0151L483.183 79.7517ZM363.677 78.2429L364.255 78.7932L363.91 79.4278L363.438 79.2681L362.199 79.2769L361.733 79.3258L361.174 79.6985L360.824 79.7117L361.062 79.126L362.112 78.2385L362.768 78.3716L363.677 78.2429ZM521.997 82.1924L525.418 82.3788L527.143 82.2545L528.839 82.4143L529.529 82.7294L530.71 83.6834L530.375 84.3091L530.171 85.6048L530.773 86.8473L531.755 88.0943L532.562 89.4255L532.727 90.0735L532.421 91.4492L532.144 92.128L531.167 93.2641L530.633 94.5022L530.978 96.0286L531.167 97.5686L531.133 98.9797L531.308 100.369L531.838 101.78L534.122 105.64L535.453 108.259L535.881 106.794L535.774 105.17L536.25 104.584L536.916 104.274L537.747 104.598L537.98 105.254L538.043 106.692L538.763 109.514L539.686 109.643L540.687 109.213L540.852 110.074L540.813 111.671L541.28 112.94L541.693 113.437L543.335 114.467L544.079 114.658L546.251 114.906L547.889 114.986L549.458 114.618L550.469 113.672L551.383 112.647L554.537 110.287L555.451 109.155L556.33 107.424L556.636 107.056L559.775 105.183L560.135 104.518L560.582 103.231L561.267 101.988L561.778 101.345L564.81 100.737L567.954 100.409L571.079 99.2636L572.425 98.2786L572.493 97.6307L571.808 96.4946L571.779 95.9932L572.498 95.5139L575.282 94.0718L578.499 92.5896L581.085 91.5689L582.513 91.5778L583.83 92.4787L585.235 93.2152L592.587 95.3808L593.763 96.0553L594.789 96.9517L596.261 97.573L597.904 97.8703L599.396 98.4516L600.81 99.1972L603.939 100.591L608.138 102.281L609.212 102.379L613.119 102.299L613.795 102.618L614.436 103.071L615.029 103.173L619.505 103.488L620.19 103.812L620.841 104.26L621.206 105.485L624.291 105.516V107.917V110.433L624.296 112.949V115.47V117.99L624.301 120.511V123.031V125.552V128.072V130.593L624.306 133.118V135.643V138.168V140.693V143.218L624.311 145.747V148.277V150.806V151.884L623.888 153.207L622.945 155.186L622.78 156.788L623.557 158.035L624.315 158.847V160.932V163.466L624.32 166.005V168.543V171.081V173.619V176.162L624.325 178.705V181.248V183.79V186.337L624.33 186.502L623.621 186.08L621.74 184.687L620.034 183.098L618.931 181.616L617.687 180.267L612.39 176.269L611.049 174.955L610.777 174.591L610.903 174.25L611.515 173.557L612.599 171.556L611.467 172.794L610.121 173.775L608.157 173.837L606.233 174.076L604.449 174.667L602.637 174.871L601.728 174.582L601.184 173.846L600.897 173.091L600.771 172.288L600.008 173.584L598.511 174.294L596.465 175.789L595.882 175.479L595.532 174.911L595.416 174.32L595.809 173.69L596.091 173.025L596.504 171.423L597.418 170.478L598.001 168.654L598.38 168.006L598.574 167.358L598.045 166.621L597.146 166.373L596.529 165.925L595.819 164.687L595.372 164.269L594.56 163.759L593.938 163.169L594.628 162.721L595.537 162.539L596.281 162.565L597.622 162.845L598.229 162.858L599.789 162.401L598.91 162.543L598.04 162.525L595.27 161.727L593.555 160.897L591.936 159.233L591.917 158.913L593.059 158.611L595.522 158.261L594.76 157.413L593.647 156.672L593.258 155.359L592.5 154.547L590.857 153.22L589.725 151.844L588.768 149.049L587.786 146.936L588.029 146.173L588.855 145.627L587.601 145.565L586.469 145.175L587.072 144.149L588.384 143.542L587.188 143.697L586.022 143.994L585.492 144.052L584.943 143.959L584.652 143.546L584.613 142.96L584.783 141.926L584.584 140.923L583.549 140.457L582.688 139.743L582.203 139.477L581.571 139.495L580.953 139.015L580.458 138.323L574.286 135.319L573.922 134.462L573.348 134.835L572.78 135.022L572.07 134.529L571.327 134.201L570.515 134.254L569.767 133.988L568.98 133.837L568.158 133.814L564.917 132.891L561.846 131.431L559.343 130.801L557.802 129.98L556.199 129.315L552.612 128.667L548.977 128.228L547.66 128.214L546.557 128.356L545.498 128.325L539.482 125.157L538.466 123.715L538.563 122.871L538.836 122.175L541.29 121.975L539.564 121.771L538.855 121.864L537.431 122.437L536.663 122.477L535.575 122.095L534.535 121.616L532.829 122.059L531.959 121.332L531.658 120.564L531.201 120.213L530.56 120.249L529.694 120.528L528.834 120.48L528.281 119.952L527.882 119.264L527.294 118.771L526.585 118.394L525.418 117.502L524.811 116.282L524.883 114.174L525.068 113.419L526.22 112.19L527.036 111.023L526.025 110.894L525.112 111.431L524.728 111.982L524.573 112.647L524.471 114.862L523.737 115.505L522.629 115.452L522.954 116.748L522.502 117.977L521.214 119.423L521.112 120.08L521.317 120.795L521.025 121.496L518.945 123.519L518.25 123.617L516.715 123.604L515.125 123.923L514.387 123.453L513.784 122.84L513.332 122.113L512.701 120.617L512.195 119.073L513.774 117.182L513.23 115.474L512.161 114.005L509.459 111.973L506.66 110.043L505.387 109.652L503.302 109.479L502.641 109.293L501.995 108.569L501.514 107.735L502.821 107.376L505.052 106.395L506.32 106.444L509.76 106.976L510.815 107.46L511.797 107.744L514.144 106.124L516.005 104.007L517.166 103.546L518.153 103.391L519.159 103.595L521.156 104.331L522.726 104.677L523.844 104.744L524.427 105.405L525.088 105.702L525.238 104.704L525.812 103.55L526.925 103.191L527.513 103.107L527.882 102.809L527.799 101.74L526.327 101.607L527.129 100.688L527.843 100.24L528.091 99.7918L528.106 99.2326L525.224 100.311L522.186 100.764L520.393 100.639L518.605 100.626L515.028 101.345L513.672 101.318L510.509 101.025L508.759 100.675L507.408 100.945L506.101 100.968L504.736 100.142L503.574 99.1128L502.996 98.3805L502.228 97.8481L501.888 97.1336L501.038 94.4445L500.96 92.5186L499.585 92.4831L498.248 92.2923L492.276 90.464L491.557 90.9122L490.716 91.143L489.875 91.2272L489.044 91.134L488.213 90.8501L488.286 90.3441L488.898 89.1105L489.506 88.6535L490.342 88.2984L490.871 87.6417L491.736 85.6759L491.804 85.0059L491.707 84.3224L491.78 83.8032L492.315 83.5326L494.564 82.8935L499.24 81.9262L500.42 81.3493L501.397 80.4262L502.534 79.8671L503.054 79.2991L503.657 78.8421L507.273 77.6218L508.832 77.5241L510.426 77.666L513.58 78.3893L516.588 79.5564L519.198 81.0918L521.997 82.1924ZM126.505 77.351L127.783 78.5536L128.089 78.984L127.457 79.6497L126.952 80.5904L126.66 80.7901L125.683 80.4307L124.993 81.3536L124.536 79.876L123.545 78.9397L124.162 77.9812L124.386 77.9102L124.687 77.9412L124.998 78.1942L126.505 77.351ZM441.454 77.1558L443.029 79.0062L441.969 80.7591L442.698 81.7397L444.686 81.8019L445.143 82.1702L445.493 82.614L445.721 83.2175L445.206 83.7012L444.098 84.145L442.82 83.5059L442.484 82.9113L442.222 82.6894L440.502 83.142L440.02 83.1864L439.69 82.3566L440.103 81.1673L438.903 80.6303L437.8 79.4012L437.761 78.9085L438.203 78.0521L438.145 77.3688L438.772 77.3156L439.918 78.2385L440.414 77.3688L440.905 77.0049L441.454 77.1558ZM437.129 79.3346L436.274 79.6541L435.346 79.6497L435.142 78.3316L435.448 76.6588L436.313 76.3748L437.678 76.7297L437.173 77.1513L437.547 78.0477L437.129 79.3346ZM116.445 77.5152L114.671 77.9457L112.693 77.635L112.937 76.894L113.889 76.0286L114.735 76.0641L116.275 76.6321L116.819 77.1425L116.445 77.5152ZM485.725 73.2596L488.087 73.7876L488.621 73.7033L492.047 75.0612L492.587 75.7357L492.397 76.1928L492.903 76.8052L491.785 77.7371L491.245 77.8391L490.701 77.4886L489.608 77.2934L488.344 77.675L487.543 77.3865L486.862 76.5344L485.657 76.0154L483.951 74.2137L483.116 74.2802L483.334 74.9857L484.058 75.4517L485.011 76.8229L485.56 76.956L486.123 76.9073L486.887 77.4797L486.848 78.3628L484.855 78.7089L484.165 78.0611L484.015 76.885L482.897 77.2799L482.464 77.6882L482.139 77.7459L481.395 76.5212L479.267 76.4547L477.853 75.8067L478.552 75.1278L478.654 74.471L479.573 74.116L480.501 74.431L481.439 73.9562L482.105 74.0761L482.596 73.7744L484.481 73.5836L485.725 73.2596ZM44.4697 79.7694L43.6582 80.3419L42.4287 79.7872L42.8419 78.9929L43.0409 77.8968L43.7798 77.0271L44.0274 76.0064L42.6085 73.2152L43.3132 73.122L43.872 73.4238L44.8099 75.2787L45.6264 76.3925L45.3008 77.9013L44.4697 79.7694ZM130.659 75.3852L131.053 75.5893L131.539 74.9458L132.438 75.8245L132.992 76.2639L133.75 76.7032L133.006 76.7209L132.7 77.1247L132.506 77.2045L129.614 75.7889L127.763 76.2461L126.495 75.8334L126.135 75.5494L126.815 74.7729L127.442 72.9934L128.711 73.4415L129.017 73.9917L128.939 74.156L129.77 74.4887L130.659 75.3852ZM468.483 75.5227L467.89 75.5582L467.395 74.8349L466.044 74.0317L465.208 72.6472L468.386 74.9325L468.483 75.5227ZM439.904 73.2817L439.836 73.6635L439.413 73.1308L439.127 73.0022L439.433 71.671L439.593 71.4447L439.841 72.3543L439.904 73.2817ZM129.44 72.4697L129.556 72.7759L128.915 72.4298L128.526 72.2212L128.264 72.0304L126.845 70.3396L127.452 70.4462L129.031 71.9327L129.44 72.4697ZM110.278 66.5057L108.748 66.5766L108.3 66.4168L108.49 65.2542L108.956 64.5531L109.651 64.5664L110.424 65.6136L110.278 66.5057ZM439.447 65.2631L438.956 65.4007L438.815 65.3518L438.67 64.8548L438.942 64.0117L439.515 64.0029L439.758 64.1404L439.807 64.7617L439.447 65.2631ZM438.801 63.417L438.334 63.8254L437.892 63.6878L437.625 63.1641L437.712 62.7869L438.082 62.5429L438.543 62.7248L438.801 63.417ZM112.538 64.988L112.256 65.1566L111.095 63.5857L111.386 62.6805L111.668 62.4497L112.31 63.0044L112.815 63.5813L113.184 64.2691L112.538 64.988ZM117.704 63.3017L117.777 63.6567L116.528 62.9423L116.494 62.423L116.654 62.1835L117.398 62.7382L117.704 63.3017ZM123.302 62.889L122.447 63.2529L121.373 62.1213L121.412 61.8595L121.514 61.6598L121.713 61.5311L122.364 62.1168L123.137 62.3254L123.302 62.889ZM106.775 63.9717L106.517 64.4465L106.011 64.0961L103.349 63.5636L102.45 63.5059L100.146 62.92L99.4464 62.6094L98.9457 62.2012L99.1157 61.4512L99.4559 60.9987L99.66 59.7384L100.243 59.2235L101.385 60.16L102.654 60.9675L103.387 61.3359L105.628 62.1613L106.42 62.5739L106.775 63.9717ZM112.178 60.2397L112.261 60.9188L111.352 60.7545L110.696 59.9558L111.236 59.3878L111.576 59.1837L111.916 59.938L112.178 60.2397ZM108.665 62.4453L108.267 62.8002L107.576 62.716L106.852 62.2989L105.909 61.5489L104.85 60.8788L103.509 60.4572L102.668 60.3286L102.333 60.1733L102.654 58.8731L103.538 58.7932L106.396 60.0002L107.319 60.657L108.665 62.4453ZM120.376 58.6023L121.242 59.1438L121.951 58.7887L121.922 59.2502L121.781 59.694L120.945 60.9675L119.546 60.6747L119.225 60.262L119.123 59.9558L119.327 59.7649L119.439 59.1393H120.041L120.376 58.6023ZM128.02 58.163L128.103 59.0904L128.881 59.5431L129.08 60.2265L128.944 61.3226L128.215 62.5873L127.889 62.92L126.922 62.6627L126.602 62.2412L126.475 61.9128L126.611 61.6775L125.897 61.3803L126.359 60.8965L126.043 60.2175L124.065 60.6436L123.492 60.657L123.39 59.8848L123.472 59.5741L124.993 58.5979L125.902 58.416L126.879 58.6111L128.02 58.163ZM98.5862 60.9587L97.9545 61.3314L97.1964 60.7457L96.5744 59.8981L96.2487 59.015L95.9521 57.5684L95.8744 56.53L96.2534 55.922L96.5305 55.9442L97.6481 56.5611L98.3869 57.6083L98.7951 57.9367L98.8778 58.8996L98.6055 60.0002L98.5862 60.9587ZM31.1352 55.0834L34.0897 58.5624L35.29 59.0284L36.884 60.6081L37.2728 61.1583L36.8694 62.2677L36.5195 65.4362L35.7566 66.226L33.8954 65.8356L33.8758 65.2809L32.8018 62.8935L30.8581 61.5622L30.0953 61.4912L29.5946 60.1288L28.6128 58.518L25.6486 55.5714L27.8986 55.5936L28.9919 54.8748L29.2446 54.3024L29.4246 54.1558L31.1352 55.0834ZM99.4704 55.1543L99.5728 56.743L98.5569 56.3259L97.7649 55.6957L96.4964 55.2298L94.9608 55.0789L93.8334 54.6663L93.0462 53.9296L93.0121 53.5879L93.0898 53.3127L93.3426 53.0953L99.1694 54.5242L99.4704 55.1543ZM404.925 60.8965L402.325 62.9955L401.533 64.0117L400.838 65.1033L399.812 66.3148L398.636 67.3843L398.048 67.6993L396.595 68.2762L395.76 68.4981L394.185 68.5736L389.442 69.4255L387.887 69.5232L386.337 69.4877L383.401 69.2747L382.789 69.1637L381.618 68.0632L380.296 67.1935L379.13 67.1003L377.939 67.1935L369.362 67.2556L366.364 67.4198L363.38 67.8059L361.752 67.6283L360.144 67.1935L358.929 67.0381L357.704 67.0826L352.077 67.7392L350.658 67.6772L347.81 66.8384L346.158 66.6698L344.53 66.8961L343.018 67.6505L342.445 68.1563L340.88 69.887L339.996 71.1473L339.32 72.7182L338.747 74.3201L338.441 75.6337L338.421 77.0094L338.694 78.5536L339.116 80.0801L339.587 81.2472L341.541 83.9452L341.94 84.3268L344.063 85.0856L345.322 86.0619L346.513 88.7689L347.368 90.1533L348.199 90.171L349.132 90.0735L350.755 90.2509L352.358 90.606L353.923 89.7761L354.798 88.2052L355.678 87.0382L357.787 84.8194L358.987 83.7944L359.75 83.4572L360.532 83.6035L361.193 84.1892L361.961 84.6552L363.536 84.9082L365.125 84.7529L366.816 84.0296L367.423 83.5858L367.929 83.0266L369.362 82.5696L372.769 82.5651L374.523 82.7294L377.662 82.5474L377.619 82.1391L377.011 81.7042L376.856 81.3536L377.439 81.1273L379.46 80.6215L381.521 80.2621L383.023 80.5194L384.359 81.225L384.874 81.9527L385.102 82.8269L384.587 85.0946L384.335 85.6226L383.266 85.8933L382.26 85.5916L381.264 84.42L379.854 83.9896L377.857 84.3446L377.167 84.6818L376.554 85.1478L375.427 86.3637L374.489 87.7349L372.453 89.8693L370.106 91.7242L368.969 92.4342L367.695 92.909L363.618 94.1383L362.544 95.0524L361.708 96.2372L360.785 96.641L359.716 96.7698L358.914 96.5479L357.291 95.8778L356.756 96.428L356.664 97.2668L357.461 97.5641L358.754 98.4915L359.75 99.8006L360.387 100.08L361.81 100.506L362.408 100.914L363.477 102.037L365.163 104.646L365.737 106.058L366.675 107.211L369.523 109.168L369.683 109.723L369.508 110.371L369.727 110.957L370.747 112.079L370.99 112.807L369.877 113.73L369.814 115.061L369.129 116.854L368.978 117.458L368.998 118.008L369.479 118.518L370.038 118.922L370.806 119.135L371.476 119.486L372.769 120.883L373.444 121.252L373.872 121.762L373.828 122.521L374.416 122.965L374.956 123.759L375.787 123.95L376.171 123.723L376.438 123.382L377.118 123.51L377.517 124.065L377.75 124.775L377.828 125.556L377.794 127.038L377.453 127.571L376.71 127.544L375.374 126.932L375.31 127.376L375.403 127.802L374.722 127.944L373.945 127.881L371.991 127.939L368.385 128.862L367.122 129.408L366.301 130.397L366.243 131.085L366.558 132.528L366.077 133.034L364.425 133.224L362.117 132.838L360.722 132.452L359.944 132.128L358.934 131.156L358.55 129.914L359.298 126.217L359.507 125.743L359.871 125.321L360.255 124.651L360.348 123.861L359.245 122.898L357.583 122.516L356.178 121.713L350.745 117.205L350.439 116.77L350.429 116.024L350.648 115.328L352.431 112.865L352.66 112.394L352.879 110.451L352.825 108.849L352.626 107.247L351.78 106.239L350.269 105.933L348.709 105.884L347.188 106.204L345.691 107.012L342.931 108.707L341.833 109.696L341.735 110.979L342.367 112.235L343.184 113.38L343.621 114.635L344.224 119.086L344.204 119.588L343.495 120.883L343.213 123.777L343.519 127.864L344.005 130.371L343.796 131.733L342.503 134.662L342.11 136.268L342.08 136.93L343.602 139.992L343.951 141.203L344.136 142.459L342.518 141.842L341.77 141.873L341.006 142.059L339.32 142.259L337.605 142.286L337.007 142.517L335.792 143.333L335.054 143.661L334.412 143.724L332.235 142.703L330.947 141.594L329.762 140.391L329.543 139.015L329.956 137.604L330.544 136.095L331.715 133.588L331.657 131.906L332.06 130.526L332.731 129.191L332.974 127.957L333.134 123.129L332.969 122.698L331.36 119.832L331.176 119.352L331.166 118.58L331.341 117.839L331.375 117.178L331.005 116.668L330.354 116.202L329.567 115.998L327.9 116.197L324.557 116.969L323.57 116.291L322.832 115.243L322.351 113.779L322.074 112.248L322.2 110.81L322.696 109.421L322.297 108.449L321.68 107.393L321.675 106.847L322.025 106.373L322.628 105.973L323.366 105.742L324.056 105.321L325.888 103.905L326.472 102.658L326.515 101.123L326.982 99.6585L327.915 98.3051L329.023 97.0538L329.378 95.7624L328.838 93.7122L329.052 92.7804L328.867 91.6843L328.848 90.6016L329.533 88.5646L331.564 84.3978L333.547 82.1835L334.334 81.6021L335.365 82.6317L336.147 83.8431L336.162 82.7471L335.928 81.6954L335.141 79.1882L334.456 74.2979L334.645 73.8364L335.34 73.912L336.05 73.4815L336.419 72.7137L335.685 70.8988L335.651 70.2554L337.07 67.7037L338.227 66.7764L338.732 66.2039L339.024 64.6463L339.626 64.0606L340.384 63.639L341.385 62.5606L341.925 61.2027L342.255 61.1006L342.644 61.0519L343.247 62.2367L343.922 62.716L345.293 63.1021L346.464 62.645L346.789 62.0504L347.232 61.5399L347.941 61.0075L348.539 60.3995L349.205 58.9929L350.084 57.7104L350.687 57.2622L351.411 56.9827L352.218 56.8096L352.995 56.7874L354.72 57.5906L355.721 57.7503L356.747 57.6927L357.393 57.8258L357.884 58.1897L358.331 58.9173L358.88 59.5476L359.39 59.8581L359.949 60.0047L363.706 59.7472L366.991 60.4572L371.471 60.617L373.007 61.0341L374.484 61.5799L376.287 62.5384L376.948 62.7514L377.687 62.6982L378.605 61.7929L379.324 61.5976L380.053 61.5622L382.94 61.7308L390.696 62.8401L391.843 62.6893L396.518 60.5637L398.393 58.5491L400.07 57.99L400.634 57.0758L400.974 55.9842L401.567 55.6913L402.971 55.3806L403.525 55.0567L404.521 53.7122L405.697 52.5229L406.276 52.1635L407.938 52.3543L408.671 52.8734L409.604 54.6218L409.444 54.9148L408.341 55.7844L408.02 56.1528L406.8 58.6111L405.965 59.8182L404.925 60.8965ZM88.7843 47.4907L89.5181 48.5069L89.6735 49.1636L89.1343 49.918L88.935 51.0762L87.3458 51.986L85.9562 51.7685L85.5042 51.4445L84.6244 49.6873L84.7119 48.1963L85.2612 47.6283L86.5538 47.717L87.866 46.9005L88.7843 47.4907ZM443.714 62.716L444.705 62.991L445.735 62.9156L446.246 62.3609L446.387 61.6421L446.907 60.3064L448.107 59.4011L448.948 59.2591L449.545 58.8775L449.443 57.8878L449.507 56.916L450.396 55.8776L453.141 54.431L454.711 53.9163L456.747 53.7521L456.976 54.3068L456.743 55.0966L457.136 56.2904L456.942 59.5209L456.475 59.978L454.371 61.0918L452.072 61.9837L451.426 62.3565L450.858 63.244L450.906 64.1271L452.782 65.3031L455.693 66.4035L456.29 66.9183L456.679 67.7836L456.786 68.751L457.491 69.2125L458.477 69.4345L459.128 69.8915L459.624 70.5349L454.726 69.0306L453.443 68.3694L451.897 68.2895L450.367 68.0898L448.807 67.5129L447.13 67.3753L446.328 67.7924L446.017 68.6091L445.828 69.5232L446.197 70.6592L446.163 71.3514L445.847 72.5984L447.062 76.2859L448.583 79.2147L450.823 82.2634L451.932 83.3106L453.171 84.2559L451.159 83.9762L450.551 82.96L448.005 81.9483L447.514 81.3448L445.852 78.4515L445.366 77.9102L443.835 76.925L443.16 76.2017L442.931 75.2254L443.102 74.2003L443.014 72.7804L443.073 71.3691L443.388 69.6473L442.839 69.0394L442.125 68.4715L441.294 67.1535L441.046 65.6536L441.114 64.7927L441.454 64.0294L441.916 63.3683L442.018 62.7204L440.823 61.7841L439.569 59.1126L439.457 57.7282L441.051 55.0612L441.017 53.7654L441.333 52.9977L441.503 52.1812L442.339 50.4061L443.695 48.893L445.998 46.7717L446.873 46.3104L447.859 46.0085L447.947 46.5277L447.791 46.9892L446.09 49.1459L445.862 49.6341L445.818 50.5392L446.63 51.0762L447.514 52.1723L447.684 53.6278L447.718 55.181L447.524 56.743L447.198 57.2667L445.803 58.8376L442.63 60.6791L442.358 61.1361L442.382 61.6421L442.965 62.2544L443.714 62.716ZM29.1233 47.5262L29.0456 47.8057L27.6361 46.5055L26.0422 45.7822L26.703 45.5959L28.0202 45.7955L28.5449 45.982L29.0503 46.6298L29.1233 47.5262ZM453.55 47.8191L451.392 48.0321L450.901 47.4418L450.333 44.7794L451.863 42.6493L453.793 41.3979L455.11 41.0829L455.571 41.0651L456.747 42.6006L455.853 45.6846L454.823 47.2599L453.55 47.8191ZM412 40.3951L411.859 40.6701L411.354 39.219L411.777 38.4913L412.384 38.7575L412.535 39.015L411.957 39.7072L412 40.3951ZM17.2561 44.0027L16.4007 44.1181L15.5746 43.8519L14.8895 43.1419L11.2252 41.0829L10.0883 41.0519L9.29136 40.5237L8.31938 40.3418L7.28897 38.9662L7.07037 38.2295L7.81871 37.8701L8.29031 37.1156L9.50995 37.4485L10.8998 38.7797L12.3138 39.2767L12.6979 39.5297L13.3878 40.2664L16.6196 42.0769L16.9693 42.6937L17.1929 43.3105L17.2561 44.0027ZM186.695 37.2488L186.029 37.8966L185.32 37.4929L186.418 36.1793L186.676 36.0906L186.695 37.2488ZM144.048 37.7769L143.479 37.8257L143.309 37.4573L143.333 36.8229L143.285 36.3169L143.119 35.9398V35.3052L143.644 35.6202L144.048 35.9176L144.514 36.1306L144.893 36.2725L145.092 36.3701L144.718 37.2665L144.048 37.7769ZM151.201 34.1336L151.182 34.9857L150.239 34.4842L150.054 33.539L150.365 33.2328L151.011 33.3971L151.201 34.1336ZM306.314 32.6027L306.144 33.011L304.977 32.0125L304.671 31.2892L304.812 30.7256L306.022 30.6768L306.625 31.0317L306.314 32.6027ZM415.416 30.6768L415.076 31.054L413.419 30.3617L413.502 29.2657L413.278 28.7243L412.831 28.1563L412.652 27.6016L412.836 26.9936L413.857 27.7702L414.43 29.0038L415.217 30.1753L415.416 30.6768ZM431.701 26.5542L431.477 26.6963L430.987 26.3634L430.68 25.9952L430.7 25.6269L431.05 25.4405L431.759 26.004L431.774 26.3147L431.701 26.5542ZM429.893 25.2408L429.927 25.7645L429.101 24.5752L428.78 23.1684L429.436 23.6699L430.17 24.7083L429.893 25.2408ZM309.4 21.3756L309.857 22.5605L309.925 23.0132L307.393 23.6344L305.867 22.1788L306.192 21.5887L307.51 21.6153L309.4 21.3756ZM178.905 27.5305L177.039 27.9877L175.961 27.3486L177.127 26.5632L177.54 26.51L177.812 26.3546L177.909 26.0352L175.8 25.5159L175.197 25.0589L174.624 23.8961L174.639 23.1551L177.35 21.1981L177.982 20.9896L178.084 21.8017L179.955 23.8519L180.038 25.2186L179.965 25.7112L178.905 27.5305ZM291.244 19.219L291.735 19.4853L292.416 19.4763L293.222 19.2812L295.205 19.4675L298.713 19.5075L301.129 19.9735L303.491 21.2914L304.667 21.5577L305.172 21.5665L305.06 21.6686L304.127 22.028L303.685 22.738L304.973 23.8252L305.06 24.5485L306.057 25.1964L307.276 26.2038L307.325 26.5322L307.738 26.9848L307.947 27.5394L307.087 28.0897L305.935 28.1918L305.08 27.6726L304.297 27.0247L304.093 27.8279L303.486 28.2894L301.27 28.1563L299.685 28.1606L298.111 28.3604L298.898 28.4847L299.613 28.742L302.067 30.7922L302.592 31.551L301.731 33.0597L302.149 33.6766L303.097 34.0316L304.253 34.7815L305.075 34.8569L305.668 35.283L305.692 36.0197L306.037 36.6853L305.104 36.956L306.027 37.1334L306.853 37.4751L306.401 37.8212L306.051 38.2428L306.431 38.4692L307.563 38.8552L308.059 39.2147L308.316 40.1776L309.424 41.753L311.446 43.7854L311.888 44.5264L311.883 45.2098L311.548 45.7955L310.396 46.479L309.478 47.3841L309.366 47.7125L308.112 48.1296L308.685 48.4358L309.142 48.8531L310.012 50.1089L312.087 52.1501L313.132 52.9133L317.423 55.6825L319.707 56.8894L322.623 59.6496L324.134 60.2886L324.431 61.0563L323.167 62.2367L321.33 62.8269L318.293 63.142L315.246 62.7292L313.671 62.392L312.301 61.713L311.222 60.3508L309.793 59.6141L310.342 60.4395L310.688 61.2826L310.508 62.2012L309.949 62.92L308.987 63.4482L307.957 63.8786L307.519 64.1803L304.905 68.9862L304.482 70.2864L303.685 75.6825L303.67 77.209L304.846 80.0624L304.948 81.5578L305.182 82.2057L305.026 82.7427L304.472 83.0621L302.227 83.9319L300.643 84.6552L299.355 85.6847L298.315 86.9672L297.402 87.8947L296.187 88.3384L295.302 88.2719L294.593 87.8458L294.092 87.0204L293.806 86.1196L293.621 86.7853L293.655 87.4375L294.073 88.1343L294.233 88.8708L293.99 89.6208L293.47 90.2199L292.061 90.8723L291.283 91.4314L291.133 92.421L290.758 92.9757L290.219 93.406L288.231 94.3912L287.784 94.7861L287.459 95.2876L288.518 95.2077L289.49 95.2876L289.563 96.2683L289.869 97.0004L289.48 98.6025L287.984 99.6852L288.732 99.9115L289.407 100.267L290.909 100.528L291.415 101.664L291.191 103.04L290.919 104.274L289.84 104.615L289.169 104.389L288.504 104.411L288.013 104.784L287.886 105.423L288.815 105.108L288.761 106.705L288.508 108.263L288.202 109.124L287.634 109.825L286.774 110.051L285.962 109.523L285.797 110.136L286.045 110.65L287.201 111.902L286.492 112.177L285.977 112.603L285.743 113.224L284.485 114.649L283.926 115.696L283.688 116.814L283.1 117.702L273.58 121.571L265.877 124.828L265.323 124.607L264.949 124.11L264.687 119.046L263.734 116.459L263.593 114.999L262.505 116.299L261.839 116.166L261.12 115.834L260.58 115.407L260.537 114.848L261.12 113.242L260.415 114.125L259.648 114.804L258.851 114.72L258.16 114.382L257.908 113.859L257.543 113.779L255.857 115.208L253.636 115.975L252.397 115.962L251.425 115.523L251.474 114.431L251.372 113.366L251.099 112.741L250.502 112.514L249.952 112.594L248.358 113.149L247.79 113.082L247.464 113.362L243.246 109.483L242.396 112.625L239.48 114.294L237.332 115.266L235.199 114.902L233.036 114.28L230.879 115.03L228.536 116.867L227.89 117.147L227.215 117.143L226.719 116.903L226.889 115.51L226.908 114.116L226.733 111.014L226.549 110.402L225.873 109.55L224.979 108.933L224.483 109.381L224.031 109.998L222.253 109.971L220.518 109.479L219.041 109.758L216.106 110.988L214.55 111.178L213.715 110.899L213.18 110.238L213.486 109.63L214.133 109.164L212.927 109.532L211.902 110.153L211.455 110.553L210.974 110.353L209.691 108.951L207.008 109.474L206.649 109.634L205.988 110.114L205.351 109.874L205.035 109.364L204.923 106.435L203.558 100.804L203.184 97.928L202.883 97.2489L201.318 96.2151L201.371 94.7329L202.188 93.4904L202.358 92.0438L202.124 90.4729L201.634 88.9375L201.017 87.7793L200.132 86.7896L198.961 85.6803L197.518 84.8505L194.407 83.9185L192.77 84.0029L192.158 83.6346L191.749 83.1598L191.914 82.2279L192.468 81.5889L193.212 81.4292L193.304 81.0653L191.725 80.3153L190.408 79.2946L189.995 78.6823L189.869 78.0077L189.878 76.4502L190.257 75.465L190.466 74.9325L190.87 73.2862L191.73 72.7847L191.594 72.483L191.224 72.2567L190.69 71.7153L190.248 71.0941L189.242 70.0379L187.468 68.7687L187.167 66.5766L186.938 63.3461L187.084 61.8773L187.653 59.1304L188.639 58.2651L189.421 58.0254L190.01 57.6571L189.523 57.6039L189.106 57.7415L188.357 57.8346L188.974 55.3763L189.251 54.6663L190.491 53.2906L191.944 52.0747L192.556 50.6413L193.382 49.3856L196.798 48.0898L195.569 49.714L195.705 50.3041L196.006 50.8277L196.891 51.196L197.144 53.1975L198.256 54.3334L199.374 55.3718L200.2 55.8821L201.109 56.6231L201.745 57.3109L202.416 57.8878L203.427 58.4515L206.163 60.8521L207.305 61.5577L208.155 62.2634L208.758 62.5119L210.25 62.3121L214.657 60.5904L215.449 60.4794L216.883 60.1821L219.415 60.2752L222.093 60.8611L222.962 60.8788L223.788 60.5282L224.935 60.6303L226.004 60.8122L226.539 60.6613L228.094 59.4055L230.213 59.0327L230.898 57.7902L231.428 56.6188L231.681 55.3718L232.565 54.8703L233.804 54.4355L235.641 53.8853L242.012 53.7876L242.629 54.0272L242.76 54.6663L242.629 55.1499L242.882 55.4383L243.728 55.465L244.51 55.7579L247.683 56.7607L249.034 57.0714L249.787 56.9915L251.274 57.8878L252.086 57.5817L253.16 56.9515L254.18 56.104L255.094 55.434L256.421 55.1721L258.141 55.2075L260.172 54.9768L261.703 54.6174L263.414 55.212L263.87 55.0257L264.167 54.4443L265.051 53.1708L265.445 52.3144L265.785 50.6725L266.023 50.2819L266.674 50.0556L267.34 49.745L267.515 49.2524L267.758 48.68L267.559 48.2007L267.18 47.7969L266.781 46.4257L266.908 45.7999L267.155 45.3341L267.841 45.0989L269.648 44.0916L271.252 42.9111L272.132 42.3342L272.515 41.9615L272.54 41.4201L271.84 40.8566L271.169 40.5859L271.121 39.9335L271.145 39.481L271.349 39.0549L271.247 38.6421L271.242 38.0254L271.67 37.3598L272.656 36.3746L273.434 35.7355L274.299 36.1306L275.305 35.9486L276.262 35.6291L276.792 34.4665L276.875 33.9118L276.748 33.468L277.079 31.8129L277.161 31.5732L277.788 30.5304L277.851 29.8292L277.497 28.2006L277.72 26.967L277.822 24.4154L278.196 23.9583L278.629 22.6359L279.329 21.2558L280.743 20.506L281.482 19.5208L281.807 19.3344L282.293 19.3255L284.004 20.0444L285.539 19.2457L286.929 19.1524L288.076 19.259L288.722 19.5874L289.359 19.8225L290.729 19.046L291.244 19.219ZM431.215 23.2705L430.666 23.5279L429.781 23.4348L429.684 22.8045L430.583 21.673L431.176 20.4793L430.545 20.182L429.927 19.4188L429.903 18.5312L430.408 16.8893L431.157 17.0225L431.876 17.7325L432.172 19.0637L432.644 20.0754L431.643 21.4511L431.215 23.2705ZM17.6497 8.42686L19.3214 8.53777L22.4268 7.86336L24.1323 7.92986L25.7408 8.41806L27.1696 8.69757L30.7267 8.33816L31.3974 8.43133L32.0389 8.71084L32.5832 9.15463L34.2113 10.77L36.9617 12.758L37.7539 14.0315L38.2057 15.4648L38.4925 15.7977L41.6027 18.5357L41.9378 19.6806L41.5006 21.2647L42.4044 22.525L45.4173 23.7098L47.1961 24.5707L47.5751 25.0988L47.8373 25.729L48.8238 26.6608L50.0583 27.2687L53.9118 28.8707L58.966 32.2166L61.838 33.8052L64.2144 36.2193L65.0746 37.3731L65.784 38.6201L67.2273 40.435L69.6814 42.676L70.3034 43.3593L70.9643 44.3489L71.7271 45.2675L72.6407 46.1106L73.7292 46.7585L74.8421 46.967L76.6354 48.5868L77.6023 49.0926L77.4519 47.8234L76.6354 46.7141L76.6499 46.0485L76.7908 45.4495L77.4567 44.948L78.2584 44.8059L79.7648 45.2675L82.2095 47.189L83.2396 48.3072L84.0122 49.8514L84.6633 51.4535L85.6353 52.2522L86.9765 52.5317L88.4684 52.6471L89.8388 53.1398L93.0462 55.3585L94.1105 56.4013L94.9172 57.6261L95.471 59.0771L95.8162 60.5993L96.0301 60.9498L98.0903 62.7869L99.1741 63.5636L100.496 63.9407L104.359 64.3534L105.715 64.988L106.843 66.0441L107.314 67.118L106.512 68.0676L103.494 69.5232L100.272 70.5304L103.407 70.1843L104.991 69.7627L106.449 69.1061L107.892 68.2674L110.186 67.0958L111.036 66.8561L112.038 66.9405L112.946 67.2734L114.307 68.4227L115.59 69.6385L116.547 71.0541L117.145 72.6295L116.047 73.4548L114.453 74.0628L112.261 75.5848L112.028 76.1884L112.48 76.5744L111.945 77.6927L113.174 78.385L113.359 78.9707L112.295 79.8094L112.397 80.3286L113.68 82.5474L114.292 83.0533L116.251 84.1805L119.234 85.3208L120.887 85.8445L122.763 86.2484L123.564 86.2394L124.969 86.0531L125.256 86.4969L125.858 88.68L126.15 90.0646L126.582 93.0067L127.127 94.227L127.092 95.718L127.807 96.9872L129.279 97.7993L130.839 98.4604L131.578 99.1083L131.568 100.085L131.315 100.857L130.79 101.456L129.167 102.729L128.876 103.28L128.648 104.682L128.925 105.325L129.576 105.361L130.081 105.024L132.025 103.142L132.55 102.814L133.283 102.547L134.032 102.379L137.584 102.366L139.096 102.663L140.432 103.275L141.613 104.043L145.943 108.946L147.921 111.653L148.076 112.328L148.11 113.029L147.775 113.57L145.977 115.421L145.748 115.931L145.189 117.946L145.292 119.397L145.889 120.005L146.37 120.666L146.331 121.265L145.146 124.247L145.024 124.757L145.773 129.608L145.826 130.921L145.676 132.585L145.782 135.266L144.81 143.555L144.631 144.048L143.887 145.317L142.91 145.308L142.118 145.086L141.569 144.602L141.263 144.003L140.816 143.511L138.454 141.98L137.837 142.233L135.436 144.132L134.8 144.411L133.998 144.181L132.734 143.613L128.774 141.616L128.531 142.255L128.478 143.12L129.265 145.294L129.377 146.244L128.657 146.43L128.254 146.39L126.607 145.13L125.086 143.732L123.36 141.842L122.097 140.946L120.96 139.943L117.752 136.135L116.916 135.554L111.945 132.869L110.944 132.23L109.671 131.121L108.305 130.131L105.307 128.574L100.107 124.624L97.8474 122.357L95.3352 118.7L94.5138 117.768L90.2908 115.026L87.9873 113.366L87.0252 112.412L84.7849 109.088L84.1288 107.97L83.3027 106.981L81.947 106.177L80.7514 105.237L78.38 102.232L77.6317 101.034L77.0678 99.7384L77.1698 97.1425L72.1403 89.2836L70.8768 86.8341L69.7055 83.4349L69.448 83.0933L66.7023 80.0491L65.7354 79.0728L64.5594 78.1587L63.6019 77.0891L61.7066 73.6146L61.0022 72.6516L60.0157 71.9417L56.4291 70.6281L55.0929 69.896L54.0382 68.8576L53.3919 67.5307L52.6824 64.7173L50.9864 60.444L49.0914 54.7195L47.8083 52.1546L46.3457 50.1399L45.918 49.674L39.406 46.0485L38.2932 45.5115L37.1124 45.192L35.4262 44.9613L34.1383 44.025L33.6136 42.3431L33.317 40.0889L32.9964 38.7442L32.6416 37.981L29.9203 36.3879L28.851 35.1276L27.9618 33.7387L27.1503 32.6648L24.1566 28.955L23.1313 27.9832L21.863 27.3042L18.1065 26.5854L17.0034 25.9685L15.1811 23.8607L14.078 22.7868L10.7735 20.4216L5.18989 15.4738L4.04767 14.24L3.19255 12.9533L2.4976 11.5732L0.116455 7.74798L0.310732 6.9758L0.665472 6.1726L0.612083 5.507L0.349587 4.85019L0.402976 4.26002L1.11246 3.9094L2.70167 3.46129L4.34902 3.51451L5.87505 3.70532L7.35215 4.07367L8.77141 4.87687L11.308 6.90931L12.7513 7.61486L14.355 7.95654L17.6497 8.42686ZM2.23036 1.18035L1.96312 1.53096L1.15131 1.34895L0.257343 0.217355L0.587761 0L1.13678 0.115381L2.18647 0.377154L2.27871 0.798728L2.23036 1.18035Z" fill="#E0E7F4"/>
</svg>
