<svg width="12" height="32" viewBox="0 0 12 32" fill="none" xmlns="http://www.w3.org/2000/svg">
<g clip-path="url(#clip0_204_42)">
<path d="M1.25 26.5143H2.5V17.4857H1.25C0.559625 17.4857 0 16.9261 0 16.2357V13.25C0 12.5596 0.559625 12 1.25 12H8.25C8.94038 12 9.5 12.5596 9.5 13.25V26.5143H10.75C11.4404 26.5143 12 27.0739 12 27.7643V30.75C12 31.4404 11.4404 32 10.75 32H1.25C0.559625 32 0 31.4404 0 30.75V27.7643C0 27.0739 0.559625 26.5143 1.25 26.5143ZM6 0C3.51469 0 1.5 2.01469 1.5 4.5C1.5 6.98531 3.51469 9 6 9C8.48531 9 10.5 6.98531 10.5 4.5C10.5 2.01469 8.48525 0 6 0Z" fill="white"/>
</g>
<defs>
<clipPath id="clip0_204_42">
<rect width="12" height="32" fill="white"/>
</clipPath>
</defs>
</svg>
